<svg width="20" height="20" viewBox="0 0 20 20" fill="none" xmlns="http://www.w3.org/2000/svg">
<path d="M16.8337 2.5C17.0103 2.50012 17.1795 2.57046 17.3044 2.69531C17.4295 2.82034 17.4998 2.99018 17.4998 3.16699V16.8359C17.4996 17.2039 17.2016 17.5017 16.8337 17.502H10.6677C10.2996 17.502 10.0009 17.204 10.0007 16.8359C10.0007 16.4677 10.2995 16.1689 10.6677 16.1689H16.1667V3.83301L10.6677 3.83398C10.2996 3.83399 10.0008 3.53512 10.0007 3.16699C10.0007 2.7988 10.2995 2.50001 10.6677 2.5H16.8337ZM7.68628 5.37109C7.94146 5.10571 8.36423 5.09739 8.62964 5.35254L12.9626 9.51953C13.0933 9.64518 13.1677 9.81871 13.1677 10C13.1677 10.1813 13.0933 10.3548 12.9626 10.4805L8.62964 14.6475C8.36424 14.9027 7.94147 14.8943 7.68628 14.6289C7.43139 14.3636 7.43981 13.9417 7.70483 13.6865L10.8455 10.667H2.83569C2.4675 10.667 2.1687 10.3682 2.1687 10C2.16879 9.63189 2.46756 9.33398 2.83569 9.33398H10.8455L7.70483 6.31445C7.43945 6.05927 7.43113 5.6365 7.68628 5.37109Z" fill="#1E2124"/>
</svg>
