<svg width="20" height="20" viewBox="0 0 20 20" fill="none" xmlns="http://www.w3.org/2000/svg">
<path d="M10 0C15.5228 0 20 4.47715 20 10C20 15.5228 15.5228 20 10 20C4.47715 20 0 15.5228 0 10C0 4.47715 4.47715 0 10 0ZM10 1.59961C5.36081 1.59961 1.59961 5.36081 1.59961 10C1.59961 14.6392 5.36081 18.4004 10 18.4004C14.6392 18.4004 18.4004 14.6392 18.4004 10C18.4004 5.36081 14.6392 1.59961 10 1.59961ZM10.5 13C10.7761 13 11 13.2239 11 13.5V14.5C11 14.7761 10.7761 15 10.5 15H9.5C9.22386 15 9 14.7761 9 14.5V13.5C9 13.2239 9.22386 13 9.5 13H10.5ZM10.5 5C10.7761 5 11 5.22386 11 5.5V11.5C11 11.7761 10.7761 12 10.5 12H9.5C9.22386 12 9 11.7761 9 11.5V5.5C9 5.22386 9.22386 5 9.5 5H10.5Z" fill="#087C80"/>
</svg>
