<svg width="20" height="20" viewBox="0 0 20 20" fill="none" xmlns="http://www.w3.org/2000/svg">
<path d="M10.833 2.1665C11.6612 2.16668 12.3329 2.8383 12.333 3.6665V4.6665H16.832C17.6604 4.6665 18.3319 5.33819 18.332 6.1665V15.1665C18.332 15.9949 17.6605 16.6665 16.832 16.6665H3.16699C2.33857 16.6665 1.66699 15.9949 1.66699 15.1665V6.1665C1.66712 5.33819 2.33865 4.6665 3.16699 4.6665H7.66602V3.6665C7.66615 2.83819 8.33767 2.1665 9.16602 2.1665H10.833ZM3.16699 6.00049C3.07503 6.00049 3.00013 6.07457 3 6.1665V15.1665C3 15.2586 3.07494 15.3335 3.16699 15.3335H16.832C16.9241 15.3335 16.999 15.2586 16.999 15.1665V6.1665C16.9989 6.07457 16.924 6.00049 16.832 6.00049H12.333V7.00049C12.3328 7.82862 11.6611 8.50031 10.833 8.50049H9.16602C8.33772 8.50049 7.66624 7.82873 7.66602 7.00049V6.00049H3.16699ZM7.50195 12.0005C8.60639 12.0005 9.50173 12.8961 9.50195 14.0005H4.50195C4.50217 12.8961 5.39752 12.0005 6.50195 12.0005H7.50195ZM14.999 12.1665C15.3672 12.1665 15.666 12.4653 15.666 12.8335C15.666 13.2016 15.3672 13.5005 14.999 13.5005H10.833C10.4648 13.5005 10.1661 13.2016 10.166 12.8335C10.166 12.4653 10.4648 12.1665 10.833 12.1665H14.999ZM7.04297 9.16748C7.66429 9.16748 8.16797 9.67116 8.16797 10.2925C8.16753 10.9134 7.66402 11.4175 7.04297 11.4175C6.42192 11.4175 5.91841 10.9134 5.91797 10.2925C5.91797 9.67116 6.42165 9.16748 7.04297 9.16748ZM14.999 9.6665C15.3672 9.6665 15.666 9.96531 15.666 10.3335C15.666 10.7016 15.3672 11.0005 14.999 11.0005H10.833C10.4648 11.0005 10.1661 10.7016 10.166 10.3335C10.166 9.96531 10.4648 9.6665 10.833 9.6665H14.999ZM9.16602 3.50049C9.07405 3.50049 8.99916 3.57457 8.99902 3.6665V7.00049C8.99924 7.09235 9.0741 7.1665 9.16602 7.1665H10.833C10.9248 7.16633 10.9988 7.09224 10.999 7.00049V3.6665C10.9989 3.57468 10.9248 3.50066 10.833 3.50049H9.16602Z" fill="#1E2124"/>
</svg>
