<svg width="20" height="20" viewBox="0 0 20 20" fill="none" xmlns="http://www.w3.org/2000/svg">
<path d="M16.834 2.5C17.0106 2.50012 17.1798 2.57046 17.3047 2.69531C17.4297 2.82034 17.5 2.99018 17.5 3.16699V16.8359C17.4999 17.2039 17.2019 17.5017 16.834 17.502H10.668C10.2999 17.502 10.0011 17.204 10.001 16.8359C10.001 16.4677 10.2998 16.1689 10.668 16.1689H16.167V3.83301L10.668 3.83398C10.2998 3.83399 10.0011 3.53512 10.001 3.16699C10.001 2.7988 10.2998 2.50001 10.668 2.5H16.834ZM7.68652 5.37109C7.9417 5.10571 8.36448 5.09739 8.62988 5.35254L12.9629 9.51953C13.0936 9.64518 13.1679 9.81871 13.168 10C13.168 10.1813 13.0935 10.3548 12.9629 10.4805L8.62988 14.6475C8.36448 14.9027 7.94172 14.8943 7.68652 14.6289C7.43164 14.3636 7.44005 13.9417 7.70508 13.6865L10.8457 10.667H2.83594C2.46775 10.667 2.16895 10.3682 2.16895 10C2.16903 9.63189 2.4678 9.33398 2.83594 9.33398H10.8457L7.70508 6.31445C7.43969 6.05927 7.43137 5.6365 7.68652 5.37109Z" fill="#464C53"/>
</svg>
