<svg width="16" height="16" viewBox="0 0 16 16" fill="none" xmlns="http://www.w3.org/2000/svg">
<path d="M2.23327 6.93375L7.5666 2.37079C7.81611 2.15733 8.18389 2.15733 8.4334 2.37079L13.7667 6.93375C13.9148 7.06041 14 7.24549 14 7.44032V13.4667C14 13.8349 13.7015 14.1333 13.3333 14.1333H10.1667C9.79848 14.1333 9.5 13.8349 9.5 13.4667V10.4668C9.5 10.2827 9.35076 10.1335 9.16667 10.1335H6.83333C6.64924 10.1335 6.5 10.2827 6.5 10.4668V13.4667C6.5 13.8349 6.20152 14.1333 5.83333 14.1333H2.66667C2.29848 14.1333 2 13.8349 2 13.4667V7.44032C2 7.24549 2.08523 7.06041 2.23327 6.93375Z" fill="#33363D"/>
</svg>
