<svg width="20" height="20" viewBox="0 0 20 20" fill="none" xmlns="http://www.w3.org/2000/svg">
<rect width="16.6667" height="16.6667" rx="8.33333" transform="matrix(1 0 0 -1 1.66699 18.3333)" fill="#087C80"/>
<path d="M9.91569 7.86743C10.468 7.86743 10.9157 7.41972 10.9157 6.86743C10.9157 6.31515 10.468 5.86743 9.91569 5.86743C9.36341 5.86743 8.91569 6.31515 8.91569 6.86743C8.91569 7.41972 9.36341 7.86743 9.91569 7.86743Z" fill="white"/>
<path d="M8.69902 8.69255C8.58857 8.69255 8.49902 8.78209 8.49902 8.89255V9.49255C8.49902 9.603 8.58857 9.69255 8.69902 9.69255H9.21699C9.32745 9.69255 9.41699 9.78209 9.41699 9.89255V12.9947H8.53301C8.42255 12.9947 8.33301 13.0843 8.33301 13.1947V13.7947C8.33301 13.9052 8.42255 13.9947 8.53301 13.9947H11.4663C11.5768 13.9947 11.6663 13.9052 11.6663 13.7947V13.1947C11.6663 13.0843 11.5768 12.9947 11.4663 12.9947H10.917V8.89254C10.917 8.78209 10.8274 8.69255 10.717 8.69255H8.69902Z" fill="white"/>
</svg>
