<svg width="20" height="20" viewBox="0 0 20 20" fill="none" xmlns="http://www.w3.org/2000/svg">
<path d="M3.47754 11.8867C6.59722 10.5916 10.1116 10.6323 13.2002 12L13.2783 12.0352C14.1222 12.409 14.6669 13.2449 14.667 14.168V16C14.667 16.3682 14.3682 16.667 14 16.667H2.33301C1.96497 16.6668 1.66699 16.3681 1.66699 16V14.1963C1.66699 13.2532 2.23451 12.4026 3.10547 12.041L3.47754 11.8867ZM12.6611 13.2197C9.90631 11.9997 6.77087 11.9629 3.98828 13.1182L3.61621 13.2725C3.24308 13.4275 3 13.7922 3 14.1963V15.334H13.333V14.168C13.3329 13.7724 13.1 13.4141 12.7383 13.2539L12.6611 13.2197ZM15.416 5C15.7842 5 16.083 5.2988 16.083 5.66699V7.25H17.666C18.0342 7.25 18.333 7.5488 18.333 7.91699C18.3329 8.28511 18.0342 8.58398 17.666 8.58398H16.083V10.167C16.0829 10.5351 15.7842 10.834 15.416 10.834C15.0479 10.834 14.7491 10.5351 14.749 10.167V8.58398H13.167C12.7989 8.58398 12.5001 8.28511 12.5 7.91699C12.5 7.5488 12.7988 7.25 13.167 7.25H14.749V5.66699C14.749 5.2988 15.0478 5 15.416 5ZM8.16699 3.33301C9.91574 3.33318 11.333 4.75121 11.333 6.5C11.333 8.24879 9.91574 9.66682 8.16699 9.66699C6.41809 9.66699 5 8.2489 5 6.5C5 4.7511 6.41809 3.33301 8.16699 3.33301ZM8.16699 4.66699C7.15447 4.66699 6.33301 5.48748 6.33301 6.5C6.33301 7.51252 7.15447 8.33301 8.16699 8.33301C9.17936 8.33283 10 7.51241 10 6.5C10 5.48759 9.17936 4.66717 8.16699 4.66699Z" fill="#1E2124"/>
</svg>
