<svg width="837" height="164" viewBox="0 0 837 164" fill="none" xmlns="http://www.w3.org/2000/svg">
<path d="M0 12C0 5.37258 5.37258 0 12 0H825C831.627 0 837 5.37258 837 12V152C837 158.627 831.627 164 825 164H12C5.3726 164 0 158.627 0 152V12Z" fill="#EEF2F7"/>
<rect width="16.6667" height="16.6667" rx="8.33333" transform="matrix(1 0 0 -1 25.667 37.3333)" fill="#087C80"/>
<path d="M33.9157 26.8674C34.468 26.8674 34.9157 26.4197 34.9157 25.8674C34.9157 25.3151 34.468 24.8674 33.9157 24.8674C33.3634 24.8674 32.9157 25.3151 32.9157 25.8674C32.9157 26.4197 33.3634 26.8674 33.9157 26.8674Z" fill="white"/>
<path d="M32.699 27.6925C32.5886 27.6925 32.499 27.7821 32.499 27.8925V28.4925C32.499 28.603 32.5886 28.6925 32.699 28.6925H33.217C33.3274 28.6925 33.417 28.7821 33.417 28.8925V31.9947H32.533C32.4226 31.9947 32.333 32.0843 32.333 32.1947V32.7947C32.333 32.9052 32.4226 32.9947 32.533 32.9947H35.4663C35.5768 32.9947 35.6663 32.9052 35.6663 32.7947V32.1947C35.6663 32.0843 35.5768 31.9947 35.4663 31.9947H34.917V27.8925C34.917 27.7821 34.8274 27.6925 34.717 27.6925H32.699Z" fill="white"/>
<path d="M66.2607 29.8203V31.5303H63.0234V36.5273H60.8652V31.5303H57.7773V36.5273H55.6025V31.5303H52.4316V29.8203H66.2607ZM59.3047 21.918C62.542 21.918 64.8164 23.2627 64.8164 25.3379C64.8164 27.3799 62.542 28.6582 59.3047 28.6582C56.0674 28.6582 53.8096 27.3799 53.8262 25.3379C53.8096 23.2627 56.0674 21.918 59.3047 21.918ZM59.3047 23.6113C57.2793 23.6113 55.9844 24.2256 56.001 25.3379C55.9844 26.4004 57.2793 26.998 59.3047 26.998C61.3467 26.998 62.625 26.4004 62.625 25.3379C62.625 24.2256 61.3467 23.6113 59.3047 23.6113ZM72.0381 22.4326C74.4287 22.416 76.2217 23.9766 76.2217 26.1348C76.2217 28.3096 74.4287 29.8535 72.0381 29.8535C69.6475 29.8535 67.8379 28.3096 67.8379 26.1348C67.8379 23.9766 69.6475 22.416 72.0381 22.4326ZM72.0381 24.2588C70.8428 24.2588 69.9297 24.9561 69.9463 26.1348C69.9297 27.3301 70.8428 28.0107 72.0381 28.0107C73.2334 28.0107 74.1465 27.3301 74.1631 26.1348C74.1465 24.9561 73.25 24.2588 72.0381 24.2588ZM79.8408 21.4199V36.5605H77.7324V21.4199H79.8408ZM67.207 31.7461C69.8965 31.7627 73.6318 31.7129 76.8691 31.2646L77.0352 32.792C73.6816 33.4395 70.0957 33.4727 67.4561 33.4727L67.207 31.7461ZM87.3945 24.8398C87.3779 27.5459 88.54 30.2852 90.9639 31.4473L89.6855 33.1406C88.0669 32.3438 86.9795 30.8496 86.3486 29.0234C85.6929 30.9824 84.5225 32.5845 82.8125 33.4229L81.501 31.7129C84.0576 30.5342 85.2695 27.6455 85.2695 24.8398V22.582H87.3945V24.8398ZM93.7529 21.4199V27.2471H95.9775V29.04H93.7529V36.5273H91.6279V21.4199H93.7529ZM108.512 21.4199V25.2881H110.554V27.0479H108.512V31.0156H106.387V21.4199H108.512ZM103.581 31.1484C106.686 31.1484 108.678 32.1611 108.678 33.8545C108.678 35.5146 106.686 36.5273 103.581 36.5273C100.41 36.5273 98.4512 35.5146 98.4678 33.8545C98.4512 32.1611 100.41 31.1484 103.581 31.1484ZM103.581 32.7588C101.605 32.7588 100.543 33.1074 100.56 33.8545C100.543 34.5684 101.605 34.9502 103.581 34.9502C105.507 34.9502 106.553 34.5684 106.553 33.8545C106.553 33.1074 105.507 32.7588 103.581 32.7588ZM105.49 22.8643V24.5078H96.5254V22.8643H99.9619V21.3369H102.07V22.8643H105.49ZM101.008 25.0225C103.199 25.0225 104.727 26.1348 104.727 27.7451C104.727 29.3721 103.199 30.4512 101.008 30.4512C98.7832 30.4512 97.2559 29.3721 97.2559 27.7451C97.2559 26.1348 98.7832 25.0225 101.008 25.0225ZM101.008 26.5664C99.9951 26.5664 99.3145 26.9814 99.3311 27.7451C99.3145 28.4922 99.9951 28.8906 101.008 28.874C102.021 28.8906 102.718 28.4922 102.718 27.7451C102.718 26.9814 102.021 26.5664 101.008 26.5664Z" fill="#1D1D1D"/>
<rect x="60" y="64" width="6" height="6" rx="3" fill="#464C53"/>
<path d="M92.0518 61.6777C92.0352 63.6533 94.6748 65.3301 97.248 65.7119L96.7666 66.7412C94.459 66.3511 92.2178 65.1226 91.3213 63.3379C90.4248 65.1226 88.1753 66.3511 85.9092 66.7412L85.3945 65.7119C87.9512 65.3301 90.5908 63.6533 90.5908 61.6777V61.5781H85.8594V60.5156H96.7666V61.5781H92.0518V61.6777ZM98.0449 68.0029V69.082H91.9355V74.3447H90.6572V69.082H84.5977V68.0029H98.0449ZM106.993 60.8809V67.7207H100.07V60.8809H106.993ZM101.349 61.96V66.6748H105.715V61.96H101.349ZM111.476 59.6025V70.2109H110.181V59.6025H111.476ZM111.94 72.7676V73.8467H101.946V69.1816H103.241V72.7676H111.94ZM127.446 66.6084V67.7041H113.982V66.6084H127.446ZM125.869 64.1348V65.1973H115.692V60.1836H125.77V61.2793H116.971V64.1348H125.869ZM120.706 68.999C123.877 68.999 125.77 69.9619 125.786 71.6553C125.77 73.3652 123.877 74.3115 120.706 74.3115C117.519 74.3115 115.609 73.3652 115.609 71.6553C115.609 69.9619 117.519 68.999 120.706 68.999ZM120.706 70.0117C118.332 70.0283 116.921 70.626 116.938 71.6553C116.921 72.7012 118.332 73.2822 120.706 73.2822C123.047 73.2822 124.475 72.7012 124.475 71.6553C124.475 70.626 123.047 70.0283 120.706 70.0117ZM142.172 67.7207V68.7998H128.658V67.7207H134.768V66.1602H130.418V62.5576H139.117V61.0303H130.368V59.9678H140.429V63.5371H131.713V65.1143H140.744V66.1602H136.046V67.7207H142.172ZM140.512 69.9287V74.2119H139.2V70.9912H130.169V69.9287H140.512ZM155.603 59.6025V70.5264H154.291V64.8486H150.805V68.0029H144.114V60.582H145.409V63.2051H149.526V60.582H150.805V63.7529H154.291V59.6025H155.603ZM155.935 72.9336V74.0293H146.057V69.4473H147.368V72.9336H155.935ZM145.409 66.9238H149.526V64.2344H145.409V66.9238ZM170.81 61.7773V62.8564H158.724V61.7773H164.136V59.835H165.414V61.7773H170.81ZM171.573 71.5391V72.6182H158.06V71.5391H164.136V69.4639C161.513 69.3228 159.919 68.3018 159.936 66.6416C159.919 64.8818 161.778 63.8525 164.783 63.8691C167.755 63.8525 169.631 64.8818 169.631 66.6416C169.631 68.3018 168.021 69.3228 165.414 69.4639V71.5391H171.573ZM164.783 64.8984C162.575 64.8984 161.23 65.5459 161.247 66.6416C161.23 67.7705 162.575 68.4014 164.783 68.418C166.958 68.4014 168.303 67.7705 168.303 66.6416C168.303 65.5459 166.958 64.8984 164.783 64.8984ZM184.174 59.5859V65.5957H186.564V66.6914H184.174V74.3447H182.879V59.5859H184.174ZM180.355 61.1797C180.355 65.3633 178.396 69.165 173.582 71.5391L172.852 70.5098C176.67 68.6089 178.745 65.77 179.044 62.2754H173.532V61.1797H180.355ZM204.577 59.6025V70.5264H203.266V66.5586H199.779V68.0029H193.089V60.582H194.384V63.2051H198.501V60.582H199.779V62.3086H203.266V59.6025H204.577ZM204.909 72.9336V74.0293H195.031V69.4473H196.343V72.9336H204.909ZM194.384 66.9238H198.501V64.2344H194.384V66.9238ZM199.779 65.4795H203.266V63.4043H199.779V65.4795ZM219.27 59.6025V68.4678H217.958V66.4756H214.04V65.3965H217.958V63.4043H214.189C213.218 65.7783 210.936 67.4966 207.781 68.4346L207.233 67.4053C210.803 66.3428 213.019 64.3506 213.293 61.7939H207.98V60.6982H214.704C214.704 61.2793 214.638 61.8354 214.521 62.3584H217.958V59.6025H219.27ZM214.438 68.6172C217.427 68.6172 219.353 69.6797 219.353 71.4395C219.353 73.2158 217.427 74.2783 214.438 74.2783C211.417 74.2783 209.508 73.2158 209.508 71.4395C209.508 69.6797 211.417 68.6172 214.438 68.6172ZM214.438 69.6631C212.214 69.6465 210.786 70.3271 210.786 71.4395C210.786 72.5518 212.214 73.2158 214.438 73.2158C216.63 73.2158 218.041 72.5518 218.058 71.4395C218.041 70.3271 216.63 69.6465 214.438 69.6631ZM230.31 64.4336V65.4961H227.321V67.5547C228.699 67.4966 230.077 67.397 231.355 67.2559L231.455 68.2188C228.284 68.6504 224.765 68.75 221.992 68.75L221.793 67.6875C223.088 67.6792 224.541 67.6626 226.026 67.6045V65.4961H223.138V60.5488H230.193V61.6279H224.449V64.4336H230.31ZM233.896 59.6025V70.6426H232.584V59.6025H233.896ZM234.377 72.9336V74.0293H224.316V69.8789H225.611V72.9336H234.377ZM253.552 59.6025V68.4678H252.24V66.4756H248.322V65.3965H252.24V63.4043H248.472C247.5 65.7783 245.218 67.4966 242.063 68.4346L241.516 67.4053C245.085 66.3428 247.301 64.3506 247.575 61.7939H242.263V60.6982H248.986C248.986 61.2793 248.92 61.8354 248.804 62.3584H252.24V59.6025H253.552ZM248.721 68.6172C251.709 68.6172 253.635 69.6797 253.635 71.4395C253.635 73.2158 251.709 74.2783 248.721 74.2783C245.699 74.2783 243.79 73.2158 243.79 71.4395C243.79 69.6797 245.699 68.6172 248.721 68.6172ZM248.721 69.6631C246.496 69.6465 245.068 70.3271 245.068 71.4395C245.068 72.5518 246.496 73.2158 248.721 73.2158C250.912 73.2158 252.323 72.5518 252.34 71.4395C252.323 70.3271 250.912 69.6465 248.721 69.6631ZM269.506 68.0527V69.1484H263.347V74.3447H262.068V69.1484H255.992V68.0527H269.506ZM262.716 60.1836C265.82 60.1836 267.912 61.4287 267.912 63.4375C267.912 65.3965 265.82 66.6416 262.716 66.6416C259.611 66.6416 257.52 65.3965 257.52 63.4375C257.52 61.4287 259.611 60.1836 262.716 60.1836ZM262.716 61.2461C260.408 61.2461 258.848 62.1094 258.864 63.4375C258.848 64.749 260.408 65.5957 262.716 65.5957C265.007 65.5957 266.584 64.749 266.584 63.4375C266.584 62.1094 265.007 61.2461 262.716 61.2461ZM283.352 59.5859V74.3447H282.09V59.5859H283.352ZM280.38 59.9014V73.5977H279.135V66.4258H277.242C277.101 69.2979 275.881 71.0908 274.055 71.0908C272.129 71.0908 270.884 69.0986 270.884 65.9609C270.884 62.8232 272.129 60.8311 274.055 60.8311C275.848 60.8311 277.06 62.5659 277.226 65.3467H279.135V59.9014H280.38ZM274.055 62.0596C272.859 62.0596 272.096 63.5537 272.112 65.9609C272.096 68.3516 272.859 69.8623 274.055 69.8457C275.25 69.8623 276.014 68.3516 276.014 65.9609C276.014 63.5537 275.25 62.0596 274.055 62.0596ZM297.33 64.0684V65.1143H287.22V60.1338H288.515V64.0684H297.33ZM298.891 67.123V68.1855H285.377V67.123H298.891ZM297.413 72.9004V73.9795H287.137V69.6963H288.432V72.9004H297.413ZM316.754 60.0342V60.9805C316.754 62.0264 316.754 63.3711 316.422 65.1641L315.127 65.0811C315.26 64.4004 315.343 63.7861 315.393 63.2383L306.411 63.6699L306.229 62.6074L315.459 62.3086C315.476 61.8604 315.476 61.4536 315.476 61.0801H306.594V60.0342H316.754ZM318.431 66.0107V67.0732H305V66.0107H310.479V64.2178H311.79V66.0107H318.431ZM316.704 68.335V71.6885H307.938V73.0996H317.152V74.1123H306.644V70.709H315.426V69.3477H306.61V68.335H316.704ZM332.21 59.5859V70.6592H330.965V59.5859H332.21ZM329.305 59.8848V70.2441H328.043V64.417H325.719V63.3379H328.043V59.8848H329.305ZM332.658 72.9336V74.0293H322.531V69.2979H323.826V72.9336H332.658ZM324.042 62.8398C324.042 64.5664 325.121 66.3428 326.997 67.1396L326.267 68.1689C324.905 67.5381 323.934 66.4092 323.444 65.0645C322.905 66.542 321.875 67.8535 320.456 68.5342L319.726 67.5215C321.618 66.625 322.78 64.583 322.78 62.8398V60.6318H324.042V62.8398ZM346.604 59.5859V74.3779H345.309V66.2432H342.188V65.1641H345.309V59.5859H346.604ZM341.938 60.9473V62.0264H336.36V65.0977H341.291V66.1602H336.36V69.7295C339.075 69.7295 340.801 69.6382 342.835 69.2812L342.984 70.3604C340.843 70.709 339.033 70.8086 336.178 70.8086H335.049V60.9473H341.938ZM362.574 71.4229V72.5186H349.061V71.4229H355.137V68.6338H350.754V64.085H359.586V61.7607H350.721V60.6816H360.864V65.1475H352.049V67.5547H361.213V68.6338H356.415V71.4229H362.574ZM380.886 59.6025V70.5098H379.574V66.5254H375.756C375.075 67.397 373.979 67.9199 372.718 67.9199C370.51 67.9199 368.883 66.3926 368.883 64.2344C368.883 62.0762 370.51 60.5488 372.718 60.5322C373.971 60.5405 375.042 61.0552 375.739 61.9102H379.574V59.6025H380.886ZM381.301 72.9336V74.0293H371.406V69.3643H372.718V72.9336H381.301ZM372.718 61.6943C371.207 61.7109 370.128 62.7568 370.128 64.2344C370.128 65.7119 371.207 66.7578 372.718 66.7578C374.162 66.7578 375.274 65.7119 375.274 64.2344C375.274 62.7568 374.162 61.7109 372.718 61.6943ZM376.337 62.9893C376.461 63.3711 376.536 63.7861 376.536 64.2344C376.536 64.666 376.461 65.0728 376.337 65.4463H379.574V62.9893H376.337ZM390.664 60.4824V64.5498H385.285V66.6914C387.908 66.6914 389.809 66.6001 392.108 66.21L392.241 67.2891C389.867 67.6875 387.892 67.7705 385.152 67.7705H384.007V63.5205H389.386V61.5449H383.974V60.4824H390.664ZM394.881 59.6025V63.3877H397.122V64.4834H394.881V68.5674H393.586V59.6025H394.881ZM394.881 69.3477V74.3447H393.586V70.4102H385.219V69.3477H394.881ZM415.367 66.4424V67.5049H410.021V60.9971H415.185V62.0596H411.333V66.4424H415.367ZM416.446 71.373V72.4521H402.933V71.373H408.992V68.252H410.271V71.373H416.446ZM409.125 60.9971V62.0762H405.406V66.4258C406.651 66.4175 407.888 66.3179 409.258 66.0107L409.374 67.1064C407.764 67.4717 406.402 67.5215 404.925 67.5049H404.111V60.9971H409.125ZM429.562 64.0684V65.1143H419.451V60.1338H420.746V64.0684H429.562ZM431.122 67.123V68.1855H417.608V67.123H431.122ZM429.645 72.9004V73.9795H419.368V69.6963H420.663V72.9004H429.645ZM449.4 59.6025V70.4268H448.105V59.6025H449.4ZM449.865 72.9336V74.0293H439.871V69.4307H441.166V72.9336H449.865ZM442.444 61.9102C442.428 64.1514 443.972 66.1768 446.163 66.9736L445.482 68.0195C443.772 67.3638 442.444 66.0356 441.797 64.334C441.141 66.1436 439.796 67.5962 438.078 68.2852L437.364 67.2725C439.605 66.4092 441.116 64.2344 441.116 61.9102V60.4326H442.444V61.9102ZM463.495 60.5488V61.6777C463.495 63.0059 463.495 64.6494 463.08 66.9902H465.354V68.0693H461.802V74.3447H460.507V68.0693H456.722V74.3447H455.427V68.0693H451.907V66.9902H461.752C462.233 64.666 462.233 62.9976 462.233 61.6777V61.6279H453.634V60.5488H463.495ZM483.6 59.5859V74.3447H482.305V59.5859H483.6ZM471.58 70.4102C472.842 70.4019 474.286 70.3936 475.78 70.3438V68.7334C474.012 68.5425 472.858 67.5381 472.875 66.0605C472.858 64.4004 474.286 63.3213 476.411 63.3213C478.536 63.3213 479.98 64.4004 479.98 66.0605C479.98 67.5215 478.835 68.5259 477.092 68.7168V70.2939C478.52 70.2358 479.964 70.1279 481.325 69.9453L481.425 70.9414C478.138 71.4727 474.519 71.5225 471.779 71.5225L471.58 70.4102ZM480.943 61.4121V62.4746H471.896V61.4121H475.78V59.6025H477.092V61.4121H480.943ZM476.411 64.334C475.05 64.334 474.087 65.0312 474.087 66.0605C474.087 67.0898 475.05 67.7539 476.411 67.7373C477.789 67.7539 478.735 67.0898 478.735 66.0605C478.735 65.0312 477.789 64.334 476.411 64.334ZM498.358 59.6025V70.8086H497.047V69.2812H493.992V68.335H497.047V59.6025H498.358ZM498.724 72.9336V74.0293H488.231V69.7129H489.543V72.9336H498.724ZM486.106 66.4424C488.862 66.4258 492.548 66.4092 495.719 66.0107L495.802 66.957C494.482 67.1646 493.104 67.2974 491.751 67.3721V70.2939H490.439V67.4385C488.945 67.5049 487.526 67.5132 486.289 67.5049L486.106 66.4424ZM490.954 60.2002C493.112 60.2002 494.59 61.2295 494.606 62.7734C494.59 64.3506 493.112 65.3301 490.954 65.3301C488.779 65.3301 487.302 64.3506 487.302 62.7734C487.302 61.2295 488.779 60.2002 490.954 60.2002ZM490.954 61.1963C489.51 61.1797 488.53 61.8271 488.547 62.7734C488.53 63.7363 489.51 64.3672 490.954 64.3672C492.349 64.3672 493.345 63.7363 493.361 62.7734C493.345 61.8271 492.349 61.1797 490.954 61.1963ZM512.304 59.5859V65.5957H514.694V66.6914H512.304V74.3447H511.009V59.5859H512.304ZM508.485 61.1797C508.485 65.3633 506.526 69.165 501.712 71.5391L500.981 70.5098C504.8 68.6089 506.875 65.77 507.174 62.2754H501.662V61.1797H508.485ZM527.76 59.5859V67.5049H526.465V59.5859H527.76ZM519.492 68.252V70.0449H526.465V68.252H527.76V74.1455H518.197V68.252H519.492ZM519.492 73.083H526.465V71.0908H519.492V73.083ZM519.791 60.3164C522.032 60.2998 523.659 61.6777 523.659 63.7031C523.659 65.7119 522.032 67.0898 519.791 67.0898C517.55 67.0898 515.923 65.7119 515.923 63.7031C515.923 61.6777 517.55 60.2998 519.791 60.3164ZM519.791 61.4121C518.28 61.3955 517.185 62.3584 517.201 63.7031C517.185 65.0479 518.28 66.0107 519.791 66.0107C521.285 66.0107 522.381 65.0479 522.381 63.7031C522.381 62.3584 521.285 61.3955 519.791 61.4121ZM537.638 62.1426V63.2051H530.233V62.1426H533.305V60.0342H534.6V62.1426H537.638ZM533.936 64.2012C535.795 64.2012 537.123 65.5957 537.14 67.5547C537.123 69.5303 535.795 70.9414 533.936 70.9414C532.093 70.9414 530.765 69.5303 530.765 67.5547C530.765 65.5957 532.093 64.2012 533.936 64.2012ZM533.936 65.2969C532.773 65.3135 531.927 66.2598 531.927 67.5547C531.927 68.8662 532.773 69.8125 533.936 69.7959C535.114 69.8125 535.978 68.8662 535.978 67.5547C535.978 66.2598 535.114 65.3135 533.936 65.2969ZM542.834 59.5859V74.3447H541.589V66.8906H539.63V73.6143H538.401V59.9512H539.63V65.8115H541.589V59.5859H542.834ZM550.155 63.5537C550.155 66.2266 551.865 68.916 554.007 69.8955L553.227 70.958C551.55 70.0947 550.164 68.3267 549.508 66.2266C548.852 68.4346 547.466 70.3271 545.789 71.2236L544.942 70.1777C547.101 69.1152 548.827 66.2764 548.827 63.5537V60.8643H550.155V63.5537ZM557.194 59.5859V74.3779H555.899V65.6953H552.396V64.6328H555.899V59.5859H557.194ZM576.718 59.5859V74.3779H575.406V59.5859H576.718ZM568.865 60.7314C571.057 60.748 572.634 62.7402 572.634 65.8779C572.634 69.0156 571.057 71.0078 568.865 71.0078C566.657 71.0078 565.097 69.0156 565.097 65.8779C565.097 62.7402 566.657 60.748 568.865 60.7314ZM568.865 61.8936C567.388 61.9102 566.358 63.4707 566.358 65.8779C566.358 68.2852 567.388 69.8457 568.865 69.8457C570.343 69.8457 571.372 68.2852 571.372 65.8779C571.372 63.4707 570.343 61.9102 568.865 61.8936ZM592.688 66.8906V67.9697H579.241V66.8906H582.578V64.8154C581.399 64.3589 580.735 63.6035 580.735 62.6074C580.735 60.8643 582.728 59.8682 585.965 59.8682C589.169 59.8682 591.178 60.8643 591.178 62.6074C591.178 63.5952 590.522 64.3506 589.352 64.7988V66.8906H592.688ZM585.965 69.0986C589.136 69.0986 591.028 70.0117 591.045 71.7051C591.028 73.3818 589.136 74.3115 585.965 74.3115C582.761 74.3115 580.868 73.3818 580.868 71.7051C580.868 70.0117 582.761 69.0986 585.965 69.0986ZM585.965 70.0947C583.591 70.1113 582.18 70.6924 582.196 71.7051C582.18 72.7012 583.591 73.2988 585.965 73.2988C588.306 73.2988 589.733 72.7012 589.733 71.7051C589.733 70.6924 588.306 70.1113 585.965 70.0947ZM585.965 60.8975C583.558 60.8975 582.063 61.5449 582.08 62.6074C582.063 63.6865 583.558 64.3174 585.965 64.3174C588.355 64.3174 589.85 63.6865 589.85 62.6074C589.85 61.5449 588.355 60.8975 585.965 60.8975ZM583.873 66.8906H588.057V65.1641C587.434 65.272 586.737 65.3301 585.965 65.3301C585.193 65.3301 584.496 65.272 583.873 65.1641V66.8906ZM605.472 59.5361V63.1221H607.713V64.2012H605.472V67.7041H604.177V59.5361H605.472ZM605.472 68.4678V71.7383H597.37V73.1826H606.02V74.1787H596.092V70.7754H604.177V69.4473H596.059V68.4678H605.472ZM602.766 60.9307V61.9766H593.967V60.9307H597.719V59.4365H599.014V60.9307H602.766ZM598.366 62.6406C600.508 62.6406 601.902 63.5703 601.919 65.0645C601.902 66.5586 600.508 67.4883 598.366 67.4883C596.208 67.4883 594.797 66.5586 594.813 65.0645C594.797 63.5703 596.208 62.6406 598.366 62.6406ZM598.366 63.6035C596.972 63.6035 596.042 64.1846 596.059 65.0645C596.042 65.9609 596.972 66.5088 598.366 66.5088C599.761 66.5088 600.674 65.9609 600.69 65.0645C600.674 64.1846 599.761 63.6035 598.366 63.6035ZM620.928 60.9639C620.928 63.0391 623.65 64.8486 626.307 65.2139L625.775 66.2764C623.484 65.8945 621.218 64.6245 620.264 62.8066C619.317 64.6328 617.043 65.8945 614.752 66.2764L614.221 65.2139C616.877 64.8486 619.583 63.0723 619.583 60.9639V60.1172H620.928V60.9639ZM626.971 67.9033V68.999H620.861V74.3447H619.583V68.999H613.523V67.9033H626.971ZM638.11 69.4971C638.11 70.8003 638.808 72.1865 640.219 72.9834C641.613 72.1118 642.36 70.6426 642.36 69.4971V68.6836H643.639V69.4971C643.639 71.0078 644.751 72.5352 646.644 73.1826L645.996 74.1455C644.519 73.6226 643.481 72.5933 642.975 71.3564C642.518 72.5518 641.613 73.6807 640.252 74.2617C638.816 73.7139 637.903 72.6265 637.463 71.3896C636.94 72.585 635.919 73.6143 634.508 74.1455L633.844 73.1826C635.703 72.4854 636.832 70.9082 636.849 69.4971V68.6836H638.11V69.4971ZM645.299 59.6025V68.0361H644.004V59.6025H645.299ZM637.33 60.4658C639.571 60.4658 641.198 61.8604 641.198 63.9189C641.198 65.9443 639.571 67.3389 637.33 67.3389C635.089 67.3389 633.462 65.9443 633.462 63.9189C633.462 61.8604 635.089 60.4658 637.33 60.4658ZM637.33 61.5781C635.819 61.5615 634.724 62.541 634.74 63.9189C634.724 65.2803 635.819 66.2432 637.33 66.2598C638.824 66.2432 639.92 65.2803 639.92 63.9189C639.92 62.541 638.824 61.5615 637.33 61.5781ZM650.811 68.4512V70.1777H658.182V68.4512H659.493V74.1455H649.516V68.4512H650.811ZM650.811 73.0996H658.182V71.207H650.811V73.0996ZM661.253 66.3262V67.4053H647.806V66.3262H661.253ZM655.21 60.4492C655.21 62.2754 657.899 63.9023 660.489 64.2344L660.008 65.2803C657.717 64.9399 655.476 63.7695 654.546 62.1094C653.6 63.7778 651.342 64.9399 649.067 65.2803L648.569 64.2344C651.192 63.8857 653.865 62.3252 653.865 60.4492V59.752H655.21V60.4492ZM674.667 59.5859V74.3447H673.372V59.5859H674.667ZM664.739 61.0469V69.4141C666.989 69.4058 669.321 69.2231 671.795 68.7002L671.978 69.8125C669.354 70.3604 667.014 70.543 664.656 70.543H663.461V61.0469H664.739ZM688.612 59.5859V65.4297H691.086V66.5254H688.612V74.3779H687.317V59.5859H688.612ZM684.728 61.0303V62.1094H679.133V69.5801C681.806 69.5801 683.698 69.4556 685.89 69.0488L686.056 70.1777C683.748 70.5928 681.806 70.6758 679 70.6758H677.838V61.0303H684.728ZM693.726 73.0996C693.145 73.0996 692.646 72.6182 692.663 72.0205C692.646 71.4395 693.145 70.958 693.726 70.958C694.307 70.958 694.788 71.4395 694.788 72.0205C694.788 72.6182 694.307 73.0996 693.726 73.0996Z" fill="#464C53"/>
<rect x="60" y="98" width="6" height="6" rx="3" fill="#464C53"/>
<path d="M96.7832 93.6025V104.427H95.4883V93.6025H96.7832ZM97.248 106.934V108.029H87.2539V103.431H88.5488V106.934H97.248ZM89.8271 95.9102C89.8105 98.1514 91.3545 100.177 93.5459 100.974L92.8652 102.02C91.1553 101.364 89.8271 100.036 89.1797 98.334C88.5239 100.144 87.1792 101.596 85.4609 102.285L84.7471 101.272C86.9883 100.409 88.499 98.2344 88.499 95.9102V94.4326H89.8271V95.9102ZM110.878 94.5488V95.6777C110.878 97.0059 110.878 98.6494 110.463 100.99H112.737V102.069H109.185V108.345H107.89V102.069H104.104V108.345H102.81V102.069H99.29V100.99H109.135C109.616 98.666 109.616 96.9976 109.616 95.6777V95.6279H101.017V94.5488H110.878ZM130.982 93.5859V108.345H129.688V93.5859H130.982ZM118.963 104.41C120.225 104.402 121.669 104.394 123.163 104.344V102.733C121.395 102.542 120.241 101.538 120.258 100.061C120.241 98.4004 121.669 97.3213 123.794 97.3213C125.919 97.3213 127.363 98.4004 127.363 100.061C127.363 101.521 126.218 102.526 124.475 102.717V104.294C125.902 104.236 127.347 104.128 128.708 103.945L128.808 104.941C125.521 105.473 121.901 105.522 119.162 105.522L118.963 104.41ZM128.326 95.4121V96.4746H119.278V95.4121H123.163V93.6025H124.475V95.4121H128.326ZM123.794 98.334C122.433 98.334 121.47 99.0312 121.47 100.061C121.47 101.09 122.433 101.754 123.794 101.737C125.172 101.754 126.118 101.09 126.118 100.061C126.118 99.0312 125.172 98.334 123.794 98.334ZM145.741 93.6025V104.809H144.43V103.281H141.375V102.335H144.43V93.6025H145.741ZM146.106 106.934V108.029H135.614V103.713H136.926V106.934H146.106ZM133.489 100.442C136.245 100.426 139.931 100.409 143.102 100.011L143.185 100.957C141.865 101.165 140.487 101.297 139.134 101.372V104.294H137.822V101.438C136.328 101.505 134.909 101.513 133.672 101.505L133.489 100.442ZM138.337 94.2002C140.495 94.2002 141.973 95.2295 141.989 96.7734C141.973 98.3506 140.495 99.3301 138.337 99.3301C136.162 99.3301 134.685 98.3506 134.685 96.7734C134.685 95.2295 136.162 94.2002 138.337 94.2002ZM138.337 95.1963C136.893 95.1797 135.913 95.8271 135.93 96.7734C135.913 97.7363 136.893 98.3672 138.337 98.3672C139.731 98.3672 140.728 97.7363 140.744 96.7734C140.728 95.8271 139.731 95.1797 138.337 95.1963ZM159.687 93.5859V99.5957H162.077V100.691H159.687V108.345H158.392V93.5859H159.687ZM155.868 95.1797C155.868 99.3633 153.909 103.165 149.095 105.539L148.364 104.51C152.183 102.609 154.258 99.77 154.557 96.2754H149.045V95.1797H155.868ZM175.143 93.5859V101.505H173.848V93.5859H175.143ZM166.875 102.252V104.045H173.848V102.252H175.143V108.146H165.58V102.252H166.875ZM166.875 107.083H173.848V105.091H166.875V107.083ZM167.174 94.3164C169.415 94.2998 171.042 95.6777 171.042 97.7031C171.042 99.7119 169.415 101.09 167.174 101.09C164.933 101.09 163.306 99.7119 163.306 97.7031C163.306 95.6777 164.933 94.2998 167.174 94.3164ZM167.174 95.4121C165.663 95.3955 164.567 96.3584 164.584 97.7031C164.567 99.0479 165.663 100.011 167.174 100.011C168.668 100.011 169.764 99.0479 169.764 97.7031C169.764 96.3584 168.668 95.3955 167.174 95.4121ZM194.716 93.5859V108.378H193.404V93.5859H194.716ZM186.863 94.7314C189.055 94.748 190.632 96.7402 190.632 99.8779C190.632 103.016 189.055 105.008 186.863 105.008C184.655 105.008 183.095 103.016 183.095 99.8779C183.095 96.7402 184.655 94.748 186.863 94.7314ZM186.863 95.8936C185.386 95.9102 184.356 97.4707 184.356 99.8779C184.356 102.285 185.386 103.846 186.863 103.846C188.341 103.846 189.37 102.285 189.37 99.8779C189.37 97.4707 188.341 95.9102 186.863 95.8936ZM210.687 100.891V101.97H197.239V100.891H200.576V98.8154C199.397 98.3589 198.733 97.6035 198.733 96.6074C198.733 94.8643 200.726 93.8682 203.963 93.8682C207.167 93.8682 209.176 94.8643 209.176 96.6074C209.176 97.5952 208.52 98.3506 207.35 98.7988V100.891H210.687ZM203.963 103.099C207.134 103.099 209.026 104.012 209.043 105.705C209.026 107.382 207.134 108.312 203.963 108.312C200.759 108.312 198.866 107.382 198.866 105.705C198.866 104.012 200.759 103.099 203.963 103.099ZM203.963 104.095C201.589 104.111 200.178 104.692 200.194 105.705C200.178 106.701 201.589 107.299 203.963 107.299C206.304 107.299 207.731 106.701 207.731 105.705C207.731 104.692 206.304 104.111 203.963 104.095ZM203.963 94.8975C201.556 94.8975 200.062 95.5449 200.078 96.6074C200.062 97.6865 201.556 98.3174 203.963 98.3174C206.354 98.3174 207.848 97.6865 207.848 96.6074C207.848 95.5449 206.354 94.8975 203.963 94.8975ZM201.871 100.891H206.055V99.1641C205.432 99.272 204.735 99.3301 203.963 99.3301C203.191 99.3301 202.494 99.272 201.871 99.1641V100.891ZM222.075 97.5537C222.059 100.243 223.901 102.966 226.076 103.945L225.279 104.975C223.603 104.153 222.15 102.418 221.444 100.31C220.755 102.542 219.303 104.402 217.576 105.273L216.746 104.178C218.938 103.165 220.764 100.359 220.78 97.5537V94.8643H222.075V97.5537ZM228.998 93.5859V108.378H227.687V93.5859H228.998ZM248.654 93.6025V104.526H247.343V100.559H243.856V102.003H237.166V94.582H238.461V97.2051H242.578V94.582H243.856V96.3086H247.343V93.6025H248.654ZM248.986 106.934V108.029H239.108V103.447H240.42V106.934H248.986ZM238.461 100.924H242.578V98.2344H238.461V100.924ZM243.856 99.4795H247.343V97.4043H243.856V99.4795ZM263.347 93.6025V102.468H262.035V100.476H258.117V99.3965H262.035V97.4043H258.267C257.295 99.7783 255.013 101.497 251.858 102.435L251.311 101.405C254.88 100.343 257.096 98.3506 257.37 95.7939H252.058V94.6982H258.781C258.781 95.2793 258.715 95.8354 258.599 96.3584H262.035V93.6025H263.347ZM258.516 102.617C261.504 102.617 263.43 103.68 263.43 105.439C263.43 107.216 261.504 108.278 258.516 108.278C255.494 108.278 253.585 107.216 253.585 105.439C253.585 103.68 255.494 102.617 258.516 102.617ZM258.516 103.663C256.291 103.646 254.863 104.327 254.863 105.439C254.863 106.552 256.291 107.216 258.516 107.216C260.707 107.216 262.118 106.552 262.135 105.439C262.118 104.327 260.707 103.646 258.516 103.663ZM282.937 93.6025V104.427H281.625V98.7656H278.587V97.6865H281.625V93.6025H282.937ZM283.352 106.934V108.029H273.457V103.447H274.769V106.934H283.352ZM275.831 96.6406C275.831 98.5498 277.309 100.409 279.467 101.14L278.786 102.186C277.118 101.588 275.831 100.343 275.2 98.8154C274.561 100.517 273.2 101.878 271.448 102.534L270.768 101.472C272.942 100.708 274.52 98.7656 274.52 96.6406V95.877H271.183V94.7979H279.135V95.877H275.831V96.6406ZM297.745 95.6777C297.729 97.6533 300.368 99.3301 302.941 99.7119L302.46 100.741C300.152 100.351 297.911 99.1226 297.015 97.3379C296.118 99.1226 293.869 100.351 291.603 100.741L291.088 99.7119C293.645 99.3301 296.284 97.6533 296.284 95.6777V95.5781H291.553V94.5156H302.46V95.5781H297.745V95.6777ZM303.738 102.003V103.082H297.629V108.345H296.351V103.082H290.291V102.003H303.738ZM312.687 94.8809V101.721H305.764V94.8809H312.687ZM307.042 95.96V100.675H311.408V95.96H307.042ZM317.169 93.6025V104.211H315.874V93.6025H317.169ZM317.634 106.768V107.847H307.64V103.182H308.935V106.768H317.634ZM333.14 100.608V101.704H319.676V100.608H333.14ZM331.562 98.1348V99.1973H321.386V94.1836H331.463V95.2793H322.664V98.1348H331.562ZM326.399 102.999C329.57 102.999 331.463 103.962 331.479 105.655C331.463 107.365 329.57 108.312 326.399 108.312C323.212 108.312 321.303 107.365 321.303 105.655C321.303 103.962 323.212 102.999 326.399 102.999ZM326.399 104.012C324.025 104.028 322.614 104.626 322.631 105.655C322.614 106.701 324.025 107.282 326.399 107.282C328.74 107.282 330.168 106.701 330.168 105.655C330.168 104.626 328.74 104.028 326.399 104.012ZM347.865 101.721V102.8H334.352V101.721H340.461V100.16H336.111V96.5576H344.811V95.0303H336.062V93.9678H346.122V97.5371H337.406V99.1143H346.438V100.16H341.739V101.721H347.865ZM346.205 103.929V108.212H344.894V104.991H335.862V103.929H346.205ZM361.296 93.6025V104.526H359.984V98.8486H356.498V102.003H349.808V94.582H351.103V97.2051H355.22V94.582H356.498V97.7529H359.984V93.6025H361.296ZM361.628 106.934V108.029H351.75V103.447H353.062V106.934H361.628ZM351.103 100.924H355.22V98.2344H351.103V100.924ZM376.503 95.7773V96.8564H364.417V95.7773H369.829V93.835H371.107V95.7773H376.503ZM377.267 105.539V106.618H363.753V105.539H369.829V103.464C367.206 103.323 365.612 102.302 365.629 100.642C365.612 98.8818 367.472 97.8525 370.477 97.8691C373.448 97.8525 375.324 98.8818 375.324 100.642C375.324 102.302 373.714 103.323 371.107 103.464V105.539H377.267ZM370.477 98.8984C368.269 98.8984 366.924 99.5459 366.94 100.642C366.924 101.771 368.269 102.401 370.477 102.418C372.651 102.401 373.996 101.771 373.996 100.642C373.996 99.5459 372.651 98.8984 370.477 98.8984ZM391.959 105.423V106.519H378.445V105.423H384.521V102.634H380.139V98.085H388.971V95.7607H380.105V94.6816H390.249V99.1475H381.434V101.555H390.598V102.634H385.8V105.423H391.959ZM410.221 93.6025V104.427H408.926V93.6025H410.221ZM410.686 106.934V108.029H400.691V103.431H401.986V106.934H410.686ZM403.265 95.9102C403.248 98.1514 404.792 100.177 406.983 100.974L406.303 102.02C404.593 101.364 403.265 100.036 402.617 98.334C401.961 100.144 400.617 101.596 398.898 102.285L398.185 101.272C400.426 100.409 401.937 98.2344 401.937 95.9102V94.4326H403.265V95.9102ZM417.758 96.7568C417.758 98.5996 419.352 100.243 421.526 100.891L420.896 101.903C419.186 101.397 417.816 100.276 417.16 98.8154C416.513 100.434 415.168 101.704 413.408 102.285L412.777 101.289C414.952 100.559 416.479 98.7656 416.479 96.7568V96.4414H413.143V95.3955H416.479V93.5195H417.791V95.3955H421.095V96.4414H417.758V96.7568ZM424.963 93.5859V102.534H423.651V98.8984H420.63V97.8193H423.651V93.5859H424.963ZM420.065 102.933C423.137 102.933 425.013 103.896 425.013 105.622C425.013 107.332 423.137 108.312 420.065 108.312C416.994 108.312 415.118 107.332 415.118 105.622C415.118 103.896 416.994 102.933 420.065 102.933ZM420.065 103.945C417.808 103.962 416.396 104.576 416.413 105.622C416.396 106.651 417.808 107.282 420.065 107.282C422.34 107.282 423.718 106.651 423.718 105.622C423.718 104.576 422.34 103.962 420.065 103.945ZM438.958 93.6025V98.4668H441.183V99.5625H438.958V104.659H437.663V93.6025H438.958ZM436.252 95.4121V96.4746H427.453V95.4121H431.205V93.6025H432.5V95.4121H436.252ZM431.853 97.2881C433.961 97.2881 435.389 98.3672 435.405 100.044C435.389 101.704 433.961 102.767 431.853 102.767C429.728 102.767 428.283 101.704 428.3 100.044C428.283 98.3672 429.728 97.2881 431.853 97.2881ZM431.853 98.3174C430.458 98.3174 429.528 98.998 429.545 100.044C429.528 101.09 430.458 101.754 431.853 101.737C433.23 101.754 434.16 101.09 434.177 100.044C434.16 98.998 433.23 98.3174 431.853 98.3174ZM439.639 106.934V108.029H429.728V103.779H431.006V106.934H439.639ZM459.112 93.5859V108.345H457.817V93.5859H459.112ZM447.093 104.41C448.354 104.402 449.799 104.394 451.293 104.344V102.733C449.525 102.542 448.371 101.538 448.388 100.061C448.371 98.4004 449.799 97.3213 451.924 97.3213C454.049 97.3213 455.493 98.4004 455.493 100.061C455.493 101.521 454.348 102.526 452.604 102.717V104.294C454.032 104.236 455.477 104.128 456.838 103.945L456.938 104.941C453.65 105.473 450.031 105.522 447.292 105.522L447.093 104.41ZM456.456 95.4121V96.4746H447.408V95.4121H451.293V93.6025H452.604V95.4121H456.456ZM451.924 98.334C450.562 98.334 449.6 99.0312 449.6 100.061C449.6 101.09 450.562 101.754 451.924 101.737C453.302 101.754 454.248 101.09 454.248 100.061C454.248 99.0312 453.302 98.334 451.924 98.334ZM473.871 93.6025V104.809H472.56V103.281H469.505V102.335H472.56V93.6025H473.871ZM474.236 106.934V108.029H463.744V103.713H465.056V106.934H474.236ZM461.619 100.442C464.375 100.426 468.061 100.409 471.231 100.011L471.314 100.957C469.995 101.165 468.617 101.297 467.264 101.372V104.294H465.952V101.438C464.458 101.505 463.039 101.513 461.802 101.505L461.619 100.442ZM466.467 94.2002C468.625 94.2002 470.103 95.2295 470.119 96.7734C470.103 98.3506 468.625 99.3301 466.467 99.3301C464.292 99.3301 462.814 98.3506 462.814 96.7734C462.814 95.2295 464.292 94.2002 466.467 94.2002ZM466.467 95.1963C465.022 95.1797 464.043 95.8271 464.06 96.7734C464.043 97.7363 465.022 98.3672 466.467 98.3672C467.861 98.3672 468.857 97.7363 468.874 96.7734C468.857 95.8271 467.861 95.1797 466.467 95.1963ZM488.63 93.5859V102.385H487.318V98.5166H484.347V97.4375H487.318V93.5859H488.63ZM483.732 102.85C486.804 102.85 488.68 103.846 488.68 105.589C488.68 107.332 486.804 108.328 483.732 108.345C480.661 108.328 478.785 107.332 478.785 105.589C478.785 103.846 480.661 102.85 483.732 102.85ZM483.732 103.862C481.475 103.862 480.063 104.51 480.08 105.589C480.063 106.651 481.475 107.299 483.732 107.299C485.99 107.299 487.385 106.651 487.385 105.589C487.385 104.51 485.99 103.862 483.732 103.862ZM481.524 96.292C481.524 98.2178 483.002 100.044 485.16 100.791L484.479 101.837C482.819 101.239 481.533 100.002 480.91 98.4668C480.263 100.202 478.893 101.588 477.142 102.252L476.461 101.206C478.652 100.409 480.213 98.417 480.213 96.3086V95.7607H476.876V94.665H484.828V95.7607H481.524V96.292ZM504.601 105.373V106.452H491.087V105.373H497.163V102.186H492.681V94.6318H493.992V97.3047H501.662V94.6318H502.94V102.186H498.441V105.373H504.601ZM493.992 101.123H501.662V98.3672H493.992V101.123ZM517.716 98.0684V99.1143H507.605V94.1338H508.9V98.0684H517.716ZM519.276 101.123V102.186H505.763V101.123H519.276ZM517.799 106.9V107.979H507.522V103.696H508.817V106.9H517.799ZM536.891 93.6025V98.0684H539.099V99.1641H536.891V103.497H535.579V93.6025H536.891ZM525.303 101.986C526.481 101.986 527.859 101.986 529.304 101.937V100.857C527.585 100.708 526.481 99.9028 526.481 98.6826C526.481 97.3379 527.859 96.5078 529.935 96.5078C532.026 96.5078 533.388 97.3379 533.404 98.6826C533.388 99.8945 532.309 100.7 530.599 100.857V101.887C531.977 101.82 533.371 101.712 534.666 101.521L534.782 102.468C531.578 103.032 528.042 103.049 525.452 103.049L525.303 101.986ZM536.891 104.228V108.345H535.579V105.273H527.112V104.228H536.891ZM534.218 94.9473V95.9434H525.668V94.9473H529.304V93.4697H530.599V94.9473H534.218ZM529.935 97.4375C528.573 97.4209 527.727 97.9023 527.727 98.6826C527.727 99.4463 528.573 99.9775 529.935 99.9609C531.296 99.9775 532.159 99.4463 532.159 98.6826C532.159 97.9023 531.296 97.4209 529.935 97.4375ZM552.247 93.6025V104.394H550.952V93.6025H552.247ZM552.712 106.934V108.029H542.718V103.298H544.013V106.934H552.712ZM544.278 94.6318C546.486 94.6318 548.146 96.126 548.146 98.251C548.146 100.409 546.486 101.887 544.278 101.887C542.07 101.887 540.41 100.409 540.41 98.251C540.41 96.126 542.07 94.6318 544.278 94.6318ZM544.278 95.7773C542.784 95.7773 541.672 96.8066 541.688 98.251C541.672 99.7285 542.784 100.741 544.278 100.741C545.739 100.741 546.868 99.7285 546.868 98.251C546.868 96.8066 545.739 95.7773 544.278 95.7773ZM566.923 93.5859V108.378H565.611V93.5859H566.923ZM559.07 94.7314C561.262 94.748 562.839 96.7402 562.839 99.8779C562.839 103.016 561.262 105.008 559.07 105.008C556.862 105.008 555.302 103.016 555.302 99.8779C555.302 96.7402 556.862 94.748 559.07 94.7314ZM559.07 95.8936C557.593 95.9102 556.563 97.4707 556.563 99.8779C556.563 102.285 557.593 103.846 559.07 103.846C560.548 103.846 561.577 102.285 561.577 99.8779C561.577 97.4707 560.548 95.9102 559.07 95.8936ZM577.432 93.835V95.2461H584.736V93.835H586.031V98.6826H576.137V93.835H577.432ZM577.432 97.6699H584.736V96.2422H577.432V97.6699ZM587.791 99.9111V100.99H581.698V102.435H586.064V105.705H577.299V107.149H586.513V108.179H576.004V104.742H584.786V103.431H575.971V102.435H580.403V100.99H574.344V99.9111H587.791ZM600.458 93.5859V99.5957H602.849V100.691H600.458V108.345H599.163V93.5859H600.458ZM596.64 95.1797C596.64 99.3633 594.681 103.165 589.866 105.539L589.136 104.51C592.954 102.609 595.029 99.77 595.328 96.2754H589.816V95.1797H596.64ZM615.648 97.7197V98.7988H605.571V93.8848H606.866V97.7197H615.648ZM617.192 100.525V101.604H603.729V100.525H617.192ZM610.452 102.933C613.623 102.933 615.516 103.896 615.532 105.605C615.516 107.315 613.623 108.278 610.452 108.278C607.265 108.278 605.355 107.315 605.355 105.605C605.355 103.896 607.265 102.933 610.452 102.933ZM610.452 103.962C608.078 103.979 606.667 104.56 606.684 105.605C606.667 106.635 608.078 107.266 610.452 107.266C612.793 107.266 614.221 106.635 614.221 105.605C614.221 104.56 612.793 103.979 610.452 103.962ZM629.959 93.5859V97.3711H632.184V98.4834H629.959V102.169H628.664V93.5859H629.959ZM621.924 102.816V104.394H628.664V102.816H629.959V108.146H620.629V102.816H621.924ZM621.924 107.1H628.664V105.423H621.924V107.1ZM627.253 95.1133V96.1924H618.454V95.1133H622.206V93.4531H623.501V95.1133H627.253ZM622.854 96.873C624.979 96.873 626.39 97.8857 626.406 99.4629C626.39 101.04 624.979 102.053 622.854 102.053C620.712 102.053 619.284 101.04 619.301 99.4629C619.284 97.8857 620.712 96.873 622.854 96.873ZM622.854 97.8857C621.459 97.8691 620.529 98.5166 620.546 99.4629C620.529 100.426 621.459 101.057 622.854 101.057C624.231 101.057 625.161 100.426 625.178 99.4629C625.161 98.5166 624.231 97.8691 622.854 97.8857ZM645.282 93.5859V108.345H643.987V93.5859H645.282ZM635.354 95.0469V103.414C637.604 103.406 639.937 103.223 642.41 102.7L642.593 103.812C639.97 104.36 637.629 104.543 635.271 104.543H634.076V95.0469H635.354ZM659.228 93.5859V99.4297H661.701V100.525H659.228V108.378H657.933V93.5859H659.228ZM655.343 95.0303V96.1094H649.748V103.58C652.421 103.58 654.313 103.456 656.505 103.049L656.671 104.178C654.363 104.593 652.421 104.676 649.615 104.676H648.453V95.0303H655.343ZM664.341 107.1C663.76 107.1 663.262 106.618 663.278 106.021C663.262 105.439 663.76 104.958 664.341 104.958C664.922 104.958 665.403 105.439 665.403 106.021C665.403 106.618 664.922 107.1 664.341 107.1Z" fill="#464C53"/>
<rect x="60" y="132" width="6" height="6" rx="3" fill="#464C53"/>
<path d="M96.833 127.603V138.427H95.5215V132.766H92.4834V131.687H95.5215V127.603H96.833ZM97.248 140.934V142.029H87.3535V137.447H88.665V140.934H97.248ZM89.7275 130.641C89.7275 132.55 91.2051 134.409 93.3633 135.14L92.6826 136.186C91.0142 135.588 89.7275 134.343 89.0967 132.815C88.4575 134.517 87.0962 135.878 85.3447 136.534L84.6641 135.472C86.8389 134.708 88.416 132.766 88.416 130.641V129.877H85.0791V128.798H93.0312V129.877H89.7275V130.641ZM112.787 135.14V136.219H106.777V139.24H105.482V136.219H99.2734V135.14H112.787ZM111.027 128.316V133.446H101.033V128.316H111.027ZM102.312 129.346V132.4H109.732V129.346H102.312ZM111.276 140.934V142.029H101V137.779H102.312V140.934H111.276ZM125.404 127.586V133.596H127.795V134.691H125.404V142.345H124.109V127.586H125.404ZM121.586 129.18C121.586 133.363 119.627 137.165 114.812 139.539L114.082 138.51C117.9 136.609 119.976 133.77 120.274 130.275H114.763V129.18H121.586ZM145.675 127.586V142.345H144.38V127.586H145.675ZM133.655 138.41C134.917 138.402 136.361 138.394 137.855 138.344V136.733C136.087 136.542 134.934 135.538 134.95 134.061C134.934 132.4 136.361 131.321 138.486 131.321C140.611 131.321 142.056 132.4 142.056 134.061C142.056 135.521 140.91 136.526 139.167 136.717V138.294C140.595 138.236 142.039 138.128 143.4 137.945L143.5 138.941C140.213 139.473 136.594 139.522 133.854 139.522L133.655 138.41ZM143.019 129.412V130.475H133.971V129.412H137.855V127.603H139.167V129.412H143.019ZM138.486 132.334C137.125 132.334 136.162 133.031 136.162 134.061C136.162 135.09 137.125 135.754 138.486 135.737C139.864 135.754 140.811 135.09 140.811 134.061C140.811 133.031 139.864 132.334 138.486 132.334ZM160.434 127.603V138.809H159.122V137.281H156.067V136.335H159.122V127.603H160.434ZM160.799 140.934V142.029H150.307V137.713H151.618V140.934H160.799ZM148.182 134.442C150.938 134.426 154.623 134.409 157.794 134.011L157.877 134.957C156.557 135.165 155.179 135.297 153.826 135.372V138.294H152.515V135.438C151.021 135.505 149.601 135.513 148.364 135.505L148.182 134.442ZM153.029 128.2C155.188 128.2 156.665 129.229 156.682 130.773C156.665 132.351 155.188 133.33 153.029 133.33C150.854 133.33 149.377 132.351 149.377 130.773C149.377 129.229 150.854 128.2 153.029 128.2ZM153.029 129.196C151.585 129.18 150.605 129.827 150.622 130.773C150.605 131.736 151.585 132.367 153.029 132.367C154.424 132.367 155.42 131.736 155.437 130.773C155.42 129.827 154.424 129.18 153.029 129.196ZM167.141 128.134C169.349 128.15 170.959 129.479 170.959 131.404C170.959 133.33 169.349 134.658 167.141 134.658C164.899 134.658 163.306 133.33 163.306 131.404C163.306 129.479 164.899 128.15 167.141 128.134ZM167.141 129.229C165.663 129.229 164.567 130.126 164.584 131.404C164.567 132.699 165.663 133.596 167.141 133.596C168.602 133.596 169.697 132.699 169.697 131.404C169.697 130.126 168.602 129.229 167.141 129.229ZM175.143 127.586V135.173H173.848V127.586H175.143ZM175.143 135.887V139.439H166.858V141.1H175.674V142.146H165.58V138.46H173.848V136.933H165.547V135.887H175.143ZM194.782 127.603V136.468H193.471V134.476H189.553V133.396H193.471V131.404H189.702C188.731 133.778 186.448 135.497 183.294 136.435L182.746 135.405C186.315 134.343 188.532 132.351 188.806 129.794H183.493V128.698H190.217C190.217 129.279 190.15 129.835 190.034 130.358H193.471V127.603H194.782ZM189.951 136.617C192.939 136.617 194.865 137.68 194.865 139.439C194.865 141.216 192.939 142.278 189.951 142.278C186.93 142.278 185.021 141.216 185.021 139.439C185.021 137.68 186.93 136.617 189.951 136.617ZM189.951 137.663C187.727 137.646 186.299 138.327 186.299 139.439C186.299 140.552 187.727 141.216 189.951 141.216C192.143 141.216 193.554 140.552 193.57 139.439C193.554 138.327 192.143 137.646 189.951 137.663ZM210.736 136.053V137.148H204.577V142.345H203.299V137.148H197.223V136.053H210.736ZM203.946 128.184C207.051 128.184 209.143 129.429 209.143 131.438C209.143 133.396 207.051 134.642 203.946 134.642C200.842 134.642 198.75 133.396 198.75 131.438C198.75 129.429 200.842 128.184 203.946 128.184ZM203.946 129.246C201.639 129.246 200.078 130.109 200.095 131.438C200.078 132.749 201.639 133.596 203.946 133.596C206.237 133.596 207.814 132.749 207.814 131.438C207.814 130.109 206.237 129.246 203.946 129.246ZM224.582 127.586V142.345H223.32V127.586H224.582ZM221.61 127.901V141.598H220.365V134.426H218.473C218.332 137.298 217.111 139.091 215.285 139.091C213.359 139.091 212.114 137.099 212.114 133.961C212.114 130.823 213.359 128.831 215.285 128.831C217.078 128.831 218.29 130.566 218.456 133.347H220.365V127.901H221.61ZM215.285 130.06C214.09 130.06 213.326 131.554 213.343 133.961C213.326 136.352 214.09 137.862 215.285 137.846C216.48 137.862 217.244 136.352 217.244 133.961C217.244 131.554 216.48 130.06 215.285 130.06ZM238.561 132.068V133.114H228.45V128.134H229.745V132.068H238.561ZM240.121 135.123V136.186H226.607V135.123H240.121ZM238.644 140.9V141.979H228.367V137.696H229.662V140.9H238.644ZM257.636 127.586V133.596H260.026V134.691H257.636V142.345H256.341V127.586H257.636ZM253.817 129.18C253.817 133.363 251.858 137.165 247.044 139.539L246.313 138.51C250.132 136.609 252.207 133.77 252.506 130.275H246.994V129.18H253.817ZM273.092 127.586V135.505H271.797V127.586H273.092ZM264.824 136.252V138.045H271.797V136.252H273.092V142.146H263.529V136.252H264.824ZM264.824 141.083H271.797V139.091H264.824V141.083ZM265.123 128.316C267.364 128.3 268.991 129.678 268.991 131.703C268.991 133.712 267.364 135.09 265.123 135.09C262.882 135.09 261.255 133.712 261.255 131.703C261.255 129.678 262.882 128.3 265.123 128.316ZM265.123 129.412C263.612 129.396 262.517 130.358 262.533 131.703C262.517 133.048 263.612 134.011 265.123 134.011C266.617 134.011 267.713 133.048 267.713 131.703C267.713 130.358 266.617 129.396 265.123 129.412ZM287.137 127.603V132.467H289.361V133.562H287.137V138.659H285.842V127.603H287.137ZM284.431 129.412V130.475H275.632V129.412H279.384V127.603H280.679V129.412H284.431ZM280.031 131.288C282.14 131.288 283.567 132.367 283.584 134.044C283.567 135.704 282.14 136.767 280.031 136.767C277.906 136.767 276.462 135.704 276.479 134.044C276.462 132.367 277.906 131.288 280.031 131.288ZM280.031 132.317C278.637 132.317 277.707 132.998 277.724 134.044C277.707 135.09 278.637 135.754 280.031 135.737C281.409 135.754 282.339 135.09 282.355 134.044C282.339 132.998 281.409 132.317 280.031 132.317ZM287.817 140.934V142.029H277.906V137.779H279.185V140.934H287.817ZM299.156 128.731C300.509 128.74 301.605 129.528 302.244 130.89H306.129V127.586H307.424V142.378H306.129V136.65H302.344C301.721 138.145 300.584 139.008 299.156 139.008C296.981 139.008 295.454 137.016 295.454 133.878C295.454 130.74 296.981 128.748 299.156 128.731ZM299.156 129.894C297.695 129.91 296.699 131.471 296.699 133.878C296.699 136.285 297.695 137.846 299.156 137.846C300.601 137.846 301.613 136.285 301.613 133.878C301.613 131.471 300.601 129.91 299.156 129.894ZM302.626 131.985C302.759 132.558 302.842 133.189 302.842 133.878C302.842 134.484 302.775 135.057 302.676 135.571H306.129V131.985H302.626ZM322.1 127.586V142.378H320.805V134.359H317.933V133.264H320.805V127.586H322.1ZM317.036 128.964V134.127H311.74V137.713C314.28 137.713 316.123 137.638 318.281 137.231L318.381 138.327C316.156 138.726 314.247 138.809 311.574 138.825H310.445V133.048H315.774V130.043H310.396V128.964H317.036ZM337.174 127.586V142.345H335.896V134.625H333.854V141.614H332.608V127.984H333.854V133.546H335.896V127.586H337.174ZM330.932 129.512C330.915 133.264 329.604 136.816 325.354 139.174L324.59 138.261C328.018 136.352 329.438 133.646 329.653 130.591H325.154V129.512H330.932ZM344.097 128.665C346.421 128.665 348.064 130.076 348.064 132.135C348.064 134.193 346.421 135.604 344.097 135.604C341.772 135.604 340.096 134.193 340.112 132.135C340.096 130.076 341.772 128.665 344.097 128.665ZM344.097 129.811C342.52 129.811 341.374 130.757 341.391 132.135C341.374 133.513 342.52 134.459 344.097 134.459C345.657 134.459 346.786 133.513 346.786 132.135C346.786 130.757 345.657 129.811 344.097 129.811ZM351.368 127.586V142.378H350.073V127.586H351.368ZM339.349 138.012C342.071 138.012 345.823 137.995 349.094 137.514L349.193 138.477C345.823 139.107 342.188 139.124 339.531 139.124L339.349 138.012ZM362.807 128.731C364.981 128.748 366.525 130.74 366.542 133.878C366.525 137.016 364.981 139.008 362.807 139.008C360.615 139.008 359.088 137.016 359.088 133.878C359.088 130.74 360.615 128.748 362.807 128.731ZM362.807 129.894C361.346 129.91 360.316 131.471 360.316 133.878C360.316 136.285 361.346 137.846 362.807 137.846C364.284 137.846 365.28 136.285 365.28 133.878C365.28 131.471 364.284 129.91 362.807 129.894ZM370.277 127.586V133.479H372.751V134.608H370.277V142.345H368.982V127.586H370.277ZM385.717 127.586V142.378H384.405V127.586H385.717ZM377.864 128.731C380.056 128.748 381.633 130.74 381.633 133.878C381.633 137.016 380.056 139.008 377.864 139.008C375.656 139.008 374.096 137.016 374.096 133.878C374.096 130.74 375.656 128.748 377.864 128.731ZM377.864 129.894C376.387 129.91 375.357 131.471 375.357 133.878C375.357 136.285 376.387 137.846 377.864 137.846C379.342 137.846 380.371 136.285 380.371 133.878C380.371 131.471 379.342 129.91 377.864 129.894ZM400.409 127.586V142.378H399.098V127.586H400.409ZM396.226 128.997V130.093H390.515V137.58C393.387 137.58 395.279 137.489 397.487 137.099L397.62 138.194C395.329 138.609 393.387 138.692 390.398 138.709H389.203V128.997H396.226ZM414.354 127.586V133.596H416.745V134.691H414.354V142.345H413.06V127.586H414.354ZM410.536 129.18C410.536 133.363 408.577 137.165 403.763 139.539L403.032 138.51C406.851 136.609 408.926 133.77 409.225 130.275H403.713V129.18H410.536ZM434.476 134.31V135.405H429.894V139.34H436.036V140.419H422.522V139.34H428.599V135.405H424.183V128.848H425.511V134.31H434.476ZM450.662 134.16V135.173H444.569V136.551H448.936V139.738H440.17V141.183H449.384V142.179H438.875V138.809H447.657V137.53H438.842V136.551H443.291V135.173H437.231V134.16H450.662ZM444.569 127.503V128.881H449.301V129.91H444.669C444.91 131.379 447.217 132.309 449.932 132.483L449.533 133.479C447.068 133.272 444.843 132.508 443.938 131.105C443.034 132.508 440.809 133.272 438.327 133.479L437.945 132.483C440.643 132.309 442.951 131.379 443.208 129.91H438.609V128.881H443.291V127.503H444.569ZM464.093 127.603V136.086H462.781V127.603H464.093ZM451.957 134.642C453.21 134.642 454.671 134.633 456.19 134.575V132.998H453.302V128.333H460.308V129.412H454.613V131.952H460.44V132.998H457.502V134.525C458.872 134.467 460.258 134.351 461.553 134.177L461.636 135.123C458.398 135.671 454.812 135.721 452.156 135.721L451.957 134.642ZM455.659 136.75V138.327H462.814V136.75H464.093V142.146H454.364V136.75H455.659ZM455.659 141.083H462.814V139.34H455.659V141.083ZM478.769 127.586V142.345H477.474V127.586H478.769ZM468.841 129.047V137.414C471.09 137.406 473.423 137.223 475.896 136.7L476.079 137.812C473.456 138.36 471.115 138.543 468.758 138.543H467.562V129.047H468.841ZM492.714 127.586V133.43H495.188V134.525H492.714V142.378H491.419V127.586H492.714ZM488.829 129.03V130.109H483.234V137.58C485.907 137.58 487.8 137.456 489.991 137.049L490.157 138.178C487.85 138.593 485.907 138.676 483.102 138.676H481.939V129.03H488.829ZM497.827 141.1C497.246 141.1 496.748 140.618 496.765 140.021C496.748 139.439 497.246 138.958 497.827 138.958C498.408 138.958 498.89 139.439 498.89 140.021C498.89 140.618 498.408 141.1 497.827 141.1Z" fill="#464C53"/>
</svg>
