<svg width="20" height="20" viewBox="0 0 20 20" fill="none" xmlns="http://www.w3.org/2000/svg">
<path d="M13.9291 4.46022C13.9291 4.36201 13.8487 4.28165 13.7505 4.28165H5.17909C5.08088 4.28165 5.00052 4.36201 5.00052 4.46022V5.53165C5.00052 5.62987 5.08088 5.71022 5.17909 5.71022H13.7505C13.8487 5.71022 13.9291 5.62987 13.9291 5.53165V4.46022ZM13.7505 7.49594H5.17909C5.08088 7.49594 5.00052 7.57629 5.00052 7.67451V8.74594C5.00052 8.84415 5.08088 8.92451 5.17909 8.92451H13.7505C13.8487 8.92451 13.9291 8.84415 13.9291 8.74594V7.67451C13.9291 7.57629 13.8487 7.49594 13.7505 7.49594ZM9.28624 10.7102H5.17909C5.08088 10.7102 5.00052 10.7906 5.00052 10.8888V11.9602C5.00052 12.0584 5.08088 12.1388 5.17909 12.1388H9.28624C9.38445 12.1388 9.46481 12.0584 9.46481 11.9602V10.8888C9.46481 10.7906 9.38445 10.7102 9.28624 10.7102ZM8.21481 17.5852H3.21481V1.87094H15.7148V9.54951C15.7148 9.64772 15.7952 9.72808 15.8934 9.72808H17.1434C17.2416 9.72808 17.322 9.64772 17.322 9.54951V0.97808C17.322 0.58299 17.0028 0.263794 16.6077 0.263794H2.32195C1.92686 0.263794 1.60767 0.58299 1.60767 0.97808V18.4781C1.60767 18.8732 1.92686 19.1924 2.32195 19.1924H8.21481C8.31302 19.1924 8.39338 19.112 8.39338 19.0138V17.7638C8.39338 17.6656 8.31302 17.5852 8.21481 17.5852ZM16.1791 15.9245C16.8264 15.3375 17.2327 14.4892 17.2327 13.545C17.2327 11.7705 15.7929 10.3308 14.0184 10.3308C12.2438 10.3308 10.8041 11.7705 10.8041 13.545C10.8041 14.4892 11.2103 15.3375 11.8577 15.9245C10.5853 16.65 9.71034 17.9937 9.64338 19.5428C9.63892 19.6433 9.72151 19.7281 9.82195 19.7281H10.8956C10.9894 19.7281 11.0675 19.6544 11.0742 19.5584C11.1612 18.0138 12.4492 16.7817 14.0184 16.7817C15.5876 16.7817 16.8755 18.0138 16.9626 19.5584C16.967 19.6522 17.0452 19.7281 17.1411 19.7281H18.2148C18.3175 19.7281 18.3978 19.6433 18.3934 19.5428C18.3286 17.9915 17.4514 16.65 16.1791 15.9245ZM14.0184 11.7593C15.005 11.7593 15.8041 12.5584 15.8041 13.545C15.8041 14.5317 15.005 15.3308 14.0184 15.3308C13.0318 15.3308 12.2327 14.5317 12.2327 13.545C12.2327 12.5584 13.0318 11.7593 14.0184 11.7593Z" fill="#1E2124"/>
</svg>
