<svg width="16" height="16" viewBox="0 0 16 16" fill="none" xmlns="http://www.w3.org/2000/svg">
<path d="M8 1.3335C11.6818 1.3335 14.6669 4.31769 14.667 7.99951C14.667 11.6814 11.6819 14.6665 8 14.6665C4.3181 14.6665 1.33301 11.6814 1.33301 7.99951C1.3331 4.31769 4.31815 1.3335 8 1.3335ZM8 2.3999C4.90726 2.3999 2.40048 4.90679 2.40039 7.99951C2.40039 11.0923 4.90721 13.6001 8 13.6001C11.0928 13.6001 13.5996 11.0923 13.5996 7.99951C13.5995 4.90679 11.0927 2.3999 8 2.3999ZM7.99902 4.46631C8.29348 4.46631 8.53304 4.70509 8.5332 4.99951V7.46631H11C11.2944 7.46648 11.5332 7.70604 11.5332 8.00049C11.5329 8.29471 11.2942 8.53352 11 8.53369H7.99902C7.70484 8.53345 7.46608 8.29466 7.46582 8.00049V4.99951C7.46598 4.70525 7.70478 4.46655 7.99902 4.46631Z" fill="#33363D"/>
</svg>
