<svg width="16" height="16" viewBox="0 0 16 16" fill="none" xmlns="http://www.w3.org/2000/svg">
<path d="M1.3335 7.99984C1.3335 11.6817 4.31826 14.6665 8.00016 14.6665C11.6821 14.6665 14.6668 11.6817 14.6668 7.99984C14.6668 4.31794 11.6821 1.33317 8.00016 1.33317C4.31826 1.33317 1.3335 4.31794 1.3335 7.99984Z" fill="#DE3412"/>
<path d="M9.62354 5.62305C9.83176 5.41482 10.1691 5.41494 10.3774 5.62305C10.5857 5.83133 10.5857 6.16867 10.3774 6.37695L8.75342 8L10.3765 9.62305C10.5847 9.83133 10.5847 10.1687 10.3765 10.377C10.1682 10.5852 9.83082 10.5852 9.62256 10.377L7.99951 8.75391L6.37744 10.377C6.16916 10.5852 5.83179 10.5852 5.62354 10.377C5.41545 10.1687 5.41539 9.83128 5.62354 9.62305L7.24561 8L5.62256 6.37695C5.41443 6.16868 5.41437 5.83128 5.62256 5.62305C5.83079 5.41481 6.16817 5.41491 6.37646 5.62305L7.99951 7.24609L9.62354 5.62305Z" fill="white"/>
</svg>
